# xmcd
#
# Track frame offsets:
#	150
#	12395
#	23930
#	37639
#	50027
#	63713
#	76476
#	89758
#	100505
#	114083
#	125427
#	137305
#	151151
#	162886
#	174839
#	187683
#	200623
#	213278
#	227395
#	241476
#	255690
#	268289
#	282974
#	296130
#
# Disc length: 4098
#
# Revision: 1
# Processed by: cddbd v1.5.1PL0 Copyright (c) Steve Scherf et al.
# Submitted via: ExactAudioCopy v0.90b4
# Normalized: r0:DSETVAR1,TDELIM( - )
#
DISCID=43100018
DTITLE=Various Artist - The R&B Hits of 1951
DYEAR=1951
DGENRE=R&B
TTITLE0=Wynonie Harris - Bloodshot Eyes
TTITLE1=The Clovers - Fool Fool Fool
TTITLE2=Pee Wee Crayton - When It Rains It Pours
TTITLE3=Little Esther - Lookin' For A Man
TTITLE4=Ray Charles - Baby Let Me Hold Your Hand
TTITLE5=Jackie Brenston - Rocket '88'
TTITLE6=Percy Mayfield - Lost Love
TTITLE7=Loyd Glenn - Chica Boo
TTITLE8=Arthur 'Big Boy' Crudup - I'm Gonna Dig Myself A Hole
TTITLE9=The Dominoes - Sixty Minute Man
TTITLE10=Lucky Millender - I'm Just Waiting For Love
TTITLE11=Ella Johnson - No More Love
TTITLE12=Lowell Fulson - I'm A Night Owl
TTITLE13=Amos Milburn - Let's Rock A While
TTITLE14=Roy Hawkins - The Thrill Has Gone
TTITLE15=Ruth Brown - Teardrops From My Eyes
TTITLE16=Chuck Willis - I Rule My House
TTITLE17=John Lee Hooker - I'm In The Mood
TTITLE18=Charles Brown - Black Night
TTITLE19=The Five Keys - The Glory Of Love
TTITLE20=Willie Mae Thornton - Cotton Picking Blues
TTITLE21=Floyd Dixon - Telephone Blues
TTITLE22=Muddy Waters - Louisiana Blues
TTITLE23=Fats Domino - Rockin' Chair
EXTD=
EXTT0=
EXTT1=
EXTT2=
EXTT3=
EXTT4=
EXTT5=
EXTT6=
EXTT7=
EXTT8=
EXTT9=
EXTT10=
EXTT11=
EXTT12=
EXTT13=
EXTT14=
EXTT15=
EXTT16=
EXTT17=
EXTT18=
EXTT19=
EXTT20=
EXTT21=
EXTT22=
EXTT23=
PLAYORDER=
